<?xml version="1.0" encoding="UTF-8" standalone="no"?>
<svg
   version="1.1"
   width="141.70364"
   height="102.66959"
   id="svg3"
   sodipodi:docname="vt_light.svg"
   inkscape:version="1.4.2 (f4327f4, 2025-05-13)"
   xmlns:inkscape="http://www.inkscape.org/namespaces/inkscape"
   xmlns:sodipodi="http://sodipodi.sourceforge.net/DTD/sodipodi-0.dtd"
   xmlns="http://www.w3.org/2000/svg"
   xmlns:svg="http://www.w3.org/2000/svg">
  <defs
     id="defs3">
    <inkscape:path-effect
       effect="fillet_chamfer"
       id="path-effect9"
       is_visible="true"
       lpeversion="1"
       nodesatellites_param="F,0,0,1,0,0,0,1 @ F,0,0,1,0,0,0,1 @ F,0,0,1,0,0,0,1 @ F,0,0,1,0,0,0,1 @ F,0,0,1,0,0,0,1 @ F,0,0,1,0,0,0,1 @ F,0,0,1,0,0,0,1 @ F,0,0,1,0,0,0,1 @ F,0,0,1,0,0,0,1 @ F,0,0,1,0,0,0,1 @ F,0,0,1,0,0,0,1 @ F,0,0,1,0,0,0,1 @ F,0,0,1,0,1.4445137,0,1 @ F,0,0,1,0,0,0,1 @ F,0,0,1,0,0,0,1"
       radius="0"
       unit="px"
       method="auto"
       mode="F"
       chamfer_steps="1"
       flexible="false"
       use_knot_distance="true"
       apply_no_radius="true"
       apply_with_radius="true"
       only_selected="false"
       hide_knots="false" />
    <inkscape:path-effect
       effect="fillet_chamfer"
       id="path-effect8"
       is_visible="true"
       lpeversion="1"
       nodesatellites_param="F,0,0,1,0,0,0,1 @ F,0,0,1,0,0,0,1 @ F,0,0,1,0,0,0,1 @ F,0,0,1,0,1.4294248,0,1 @ F,0,0,1,0,0,0,1 @ F,0,0,1,0,0,0,1 @ F,0,0,1,0,0,0,1 @ F,0,0,1,0,6.9536259,0,1"
       radius="0"
       unit="px"
       method="auto"
       mode="F"
       chamfer_steps="1"
       flexible="false"
       use_knot_distance="true"
       apply_no_radius="true"
       apply_with_radius="true"
       only_selected="false"
       hide_knots="false" />
    <inkscape:path-effect
       effect="spiro"
       id="path-effect4"
       is_visible="true"
       lpeversion="1" />
  </defs>
  <sodipodi:namedview
     id="namedview3"
     pagecolor="#505050"
     bordercolor="#eeeeee"
     borderopacity="1"
     inkscape:showpageshadow="0"
     inkscape:pageopacity="0"
     inkscape:pagecheckerboard="0"
     inkscape:deskcolor="#505050"
     inkscape:zoom="3.4001187"
     inkscape:cx="38.381013"
     inkscape:cy="33.381187"
     inkscape:window-width="1920"
     inkscape:window-height="1009"
     inkscape:window-x="1912"
     inkscape:window-y="1083"
     inkscape:window-maximized="1"
     inkscape:current-layer="layer2" />
  <g
     inkscape:groupmode="layer"
     id="layer2"
     inkscape:label="Finished"
     style="display:inline;fill:#ffffff;fill-opacity:1"
     transform="translate(-6.3848856,-13.271821)">
    <rect
       style="fill:#ffffff;fill-opacity:1;stroke-width:1.19868"
       id="rect3"
       width="29.773331"
       height="11.860924"
       x="118.31519"
       y="13.499966"
       ry="5.9304619" />
    <path
       id="rect3-2"
       style="fill:#ffffff;fill-opacity:1;stroke-width:1.70674"
       d="m 66.441406,13.556641 c -3.285476,0 -5.93164,2.644211 -5.93164,5.929687 0,3.285476 2.646164,5.929688 5.93164,5.929688 h 30.095795 a 1.8573298,1.8573298 45 0 1 1.85733,1.85733 v 82.736424 c 0,3.28547 2.646169,5.93164 5.931639,5.93164 3.28548,0 5.92969,-2.64617 5.92969,-5.93164 V 20.510267 a 6.9536259,6.9536259 45 0 0 -6.95363,-6.953626 z"
       sodipodi:nodetypes="ssscssscs"
       inkscape:path-effect="#path-effect8"
       inkscape:original-d="m 66.441406,13.556641 c -3.285476,0 -5.93164,2.644211 -5.93164,5.929687 0,3.285476 2.646164,5.929688 5.93164,5.929688 h 31.953125 v 84.593754 c 0,3.28547 2.646169,5.93164 5.931639,5.93164 3.28548,0 5.92969,-2.64617 5.92969,-5.93164 V 13.556641 Z" />
    <path
       id="rect8"
       style="fill:#ffffff;fill-opacity:1;stroke-width:1.12251"
       d="m 9.5786703,14.667482 c -0.2032127,-0.02051 -0.4095938,-0.03132 -0.6183922,-0.03132 -3.3407744,0 -6.0302136,2.690575 -6.0302136,6.031349 l 5.73e-4,91.507279 c 0,3.34078 2.9824615,7.26887 7.6824355,5.89833 4.699975,-1.37054 12.437411,-4.74429 17.380847,-7.67117 4.743097,-2.80826 13.277395,-8.4065 20.538968,-15.662767 C 59.490108,83.789967 68.505497,69.473327 70.674251,65.114799 72.842995,60.75627 71.455548,58.10782 69.266576,56.849413 67.077612,55.591007 63.596719,55.696966 61.257331,59.27948 58.917942,62.861994 49.297341,78.156591 40.811815,86.045541 36.305586,90.234957 26.81225,96.78846 22.958093,99.1124 c -1.378725,0.831334 -3.957625,2.27318 -6.702375,3.78413 -0.698801,0.38468 -1.26589,0.0487 -1.265872,-0.7491 l 0.0019,-81.480438 c 0,-3.131976 -2.364894,-5.691797 -5.4130847,-5.99951 z"
       transform="matrix(0.9924639,-0.12253739,0.17266617,0.9849804,0,0)"
       sodipodi:nodetypes="sscczsssssssccs"
       inkscape:path-effect="#path-effect9"
       inkscape:original-d="m 9.5786703,14.667482 c -0.2032127,-0.02051 -0.4095938,-0.03132 -0.6183922,-0.03132 -3.3407744,0 -6.0302136,2.690575 -6.0302136,6.031349 l 5.73e-4,91.507279 c 0,3.34078 2.9824615,7.26887 7.6824355,5.89833 4.699975,-1.37054 12.437411,-4.74429 17.380847,-7.67117 4.743097,-2.80826 13.277395,-8.4065 20.538968,-15.662767 C 59.490108,83.789967 68.505497,69.473327 70.674251,65.114799 72.842995,60.75627 71.455548,58.10782 69.266576,56.849413 67.077612,55.591007 63.596719,55.696966 61.257331,59.27948 58.917942,62.861994 49.297341,78.156591 40.811815,86.045541 36.305586,90.234957 26.81225,96.78846 22.958093,99.1124 c -1.589358,0.95834 -4.773616,2.72798 -7.96828,4.47954 l 0.0019,-82.924948 c 0,-3.131976 -2.364894,-5.691797 -5.4130847,-5.99951 z" />
  </g>
</svg>
