<?xml version="1.0" encoding="UTF-8" standalone="no"?>
<!-- Generator: Adobe Illustrator 25.0.1, SVG Export Plug-In . SVG Version: 6.00 Build 0)  -->

<svg
   version="1.0"
   id="Layer_1"
   x="0px"
   y="0px"
   viewBox="0 0 99.400004 99.399998"
   xml:space="preserve"
   sodipodi:docname="KeyShot.svg"
   width="99.400002"
   height="99.400002"
   inkscape:version="1.4.2 (f4327f4, 2025-05-13)"
   xmlns:inkscape="http://www.inkscape.org/namespaces/inkscape"
   xmlns:sodipodi="http://sodipodi.sourceforge.net/DTD/sodipodi-0.dtd"
   xmlns="http://www.w3.org/2000/svg"
   xmlns:svg="http://www.w3.org/2000/svg"><defs
   id="defs7">
	
	
	
	
	
	
	
	
		<linearGradient
   id="XMLID_25_"
   gradientUnits="userSpaceOnUse"
   x1="-1.4713"
   y1="-81.111"
   x2="-0.83660001"
   y2="-81.111"
   gradientTransform="matrix(-80.4642,-113.7005,-113.7005,80.4642,-9200.3164,6563.2852)">
		<stop
   offset="0"
   style="stop-color:#006EAD"
   id="stop1" />
		<stop
   offset="4.714984e-02"
   style="stop-color:#0075B9"
   id="stop2" />
		<stop
   offset="0.1723"
   style="stop-color:#0083D2"
   id="stop3" />
		<stop
   offset="0.3115"
   style="stop-color:#008FE6"
   id="stop4" />
		<stop
   offset="0.47"
   style="stop-color:#0097F4"
   id="stop5" />
		<stop
   offset="0.6645"
   style="stop-color:#009CFD"
   id="stop6" />
		<stop
   offset="1"
   style="stop-color:#009DFF"
   id="stop7" />
	</linearGradient>
	
	
	
</defs><sodipodi:namedview
   id="namedview7"
   pagecolor="#505050"
   bordercolor="#eeeeee"
   borderopacity="1"
   inkscape:showpageshadow="0"
   inkscape:pageopacity="0"
   inkscape:pagecheckerboard="0"
   inkscape:deskcolor="#505050"
   inkscape:zoom="2.3826394"
   inkscape:cx="182.36079"
   inkscape:cy="49.73476"
   inkscape:window-width="1920"
   inkscape:window-height="1009"
   inkscape:window-x="-8"
   inkscape:window-y="1072"
   inkscape:window-maximized="1"
   inkscape:current-layer="Layer_1" />
<style
   type="text/css"
   id="style1">
	.st0{fill:url(#XMLID_25_);}
	.st1{fill:#EDEDED;}
</style>
<g
   id="g7"
   transform="translate(-66.2,-119.6)"><circle
     id="XMLID_14_"
     class="st0"
     cx="115.9"
     cy="169.3"
     r="44.200001"
     style="fill:url(#XMLID_25_)" /><path
     id="XMLID_15_"
     d="m 112.2,195.6 c -2.1,0 -4.1,-0.8 -5.7,-2.2 L 93.2,181.5 c -2.2,-2 -3.3,-5 -2.7,-8 l 3.3,-17.9 c 0.6,-3 2.7,-5.6 5.7,-6.6 l 17,-6 c 0.9,-0.3 1.9,-0.5 2.8,-0.5 2.1,0 4.1,0.8 5.7,2.1 l 13.8,12.4 c 2.3,2 3.3,5.2 2.7,8.2 l -3.8,17.9 c -0.6,2.9 -2.8,5.4 -5.6,6.3 l -17,5.5 c -1,0.5 -2,0.7 -2.9,0.7 z" /><path
     id="XMLID_24_"
     class="st1"
     d="m 115.9,119.6 c -27.4,0 -49.7,22.3 -49.7,49.7 0,27.4 22.2,49.7 49.7,49.7 27.5,0 49.7,-22.3 49.7,-49.7 0,-27.4 -22.3,-49.7 -49.7,-49.7 z m -14.3,7.6 c 3.7,-1.5 21,-5.4 36.2,3.3 1,0.6 1.7,1.4 1.7,2.9 0.1,3.6 0.3,10.8 -0.2,19.4 0,0.6 -0.7,0.9 -1.2,0.6 0,0 -14.6,-15.3 -36.4,-25.2 -0.5,-0.3 -0.5,-0.8 -0.1,-1 z m 36.7,37.5 -3.8,17.9 c -0.4,1.9 -1.8,3.4 -3.6,4 l -17,5.5 c -1.8,0.6 -3.9,0.2 -5.3,-1.1 L 95.3,179.1 c -1.4,-1.3 -2.1,-3.2 -1.7,-5 l 3.3,-17.9 c 0.4,-1.9 1.7,-3.5 3.6,-4.1 l 17.1,-6 c 1.8,-0.6 3.9,-0.2 5.3,1.1 l 13.8,12.4 c 1.4,1.2 2,3.2 1.6,5.1 z M 92.9,131.1 c 1,-0.6 1.9,-0.5 3.3,-0.1 0,0 8.1,2.8 17,9.6 0.5,0.4 0.4,1.1 -0.1,1.3 0,0 -20.3,5.2 -39.7,19.2 -0.3,0.2 -0.8,0 -0.7,-0.4 0.4,-3.8 3.5,-19 20.2,-29.6 z m -5.4,71.3 c 0,0.4 -0.4,0.6 -0.7,0.4 -3.2,-2.4 -14.5,-13.5 -15.3,-33.2 -0.1,-1.2 0.7,-1.8 1.8,-2.8 0,0 7,-5.5 16.7,-9.8 0.5,-0.2 1.1,0.2 1.1,0.8 -0.2,0.8 -6.1,21.5 -3.6,44.6 z m 42.6,8.5 c -3.7,1.5 -20.9,5.4 -36.1,-3.2 -1,-0.6 -1.7,-1.4 -1.7,-2.8 -0.1,-3.6 -0.3,-10.8 0.1,-19.4 0,-0.6 0.7,-0.9 1.2,-0.6 0,0 14.6,15.2 36.4,25.1 0.4,0.3 0.5,0.8 0.1,0.9 z m 8.5,-3.7 c -1,0.6 -1.9,0.5 -3.3,0 0,0 -8.1,-2.9 -16.9,-9.7 -0.5,-0.4 -0.4,-1.1 0.1,-1.3 0,0 20.3,-5.1 39.8,-19 0.3,-0.2 0.8,0 0.7,0.4 -0.5,4 -3.8,19.1 -20.4,29.6 z m 19.7,-35.5 c 0,0 -7,5.4 -16.7,9.6 -0.5,0.2 -1.1,-0.2 -1.1,-0.8 0,0 6.1,-20.7 3.9,-44.5 0,-0.4 0.4,-0.6 0.7,-0.4 3.2,2.5 14.3,13.6 15,33.3 0,1.2 -0.7,1.8 -1.8,2.8 z" /></g>
</svg>
