<?xml version="1.0" encoding="UTF-8" standalone="no"?>
<svg
   height="612.93469"
   viewBox="-0.365 -0.119 27.942599 37.124286"
   width="464.59186"
   version="1.1"
   id="svg1"
   sodipodi:docname="solidworks-logo-1.svg"
   inkscape:version="1.4.2 (f4327f4, 2025-05-13)"
   xmlns:inkscape="http://www.inkscape.org/namespaces/inkscape"
   xmlns:sodipodi="http://sodipodi.sourceforge.net/DTD/sodipodi-0.dtd"
   xmlns="http://www.w3.org/2000/svg"
   xmlns:svg="http://www.w3.org/2000/svg">
  <defs
     id="defs1" />
  <sodipodi:namedview
     id="namedview1"
     pagecolor="#505050"
     bordercolor="#eeeeee"
     borderopacity="1"
     inkscape:showpageshadow="0"
     inkscape:pageopacity="0"
     inkscape:pagecheckerboard="0"
     inkscape:deskcolor="#505050"
     inkscape:zoom="0.50232866"
     inkscape:cx="-281.68809"
     inkscape:cy="468.81657"
     inkscape:window-width="1920"
     inkscape:window-height="1009"
     inkscape:window-x="1912"
     inkscape:window-y="1083"
     inkscape:window-maximized="1"
     inkscape:current-layer="svg1" />
  <g
     id="g2"
     transform="matrix(0.97546441,0,0,0.97546441,-47.523051,9.6486579)">
    <path
       d="m 70.465928,-2.4892355 c -1.739937,-0.2858895 -4.850149,-0.3962561 -5.913923,1.2339789 -0.821101,1.25924354 0.731345,2.9838886 2.144836,4.6546801 1.13292,1.3383617 2.365569,2.6168862 1.86227,3.3641881 -0.410882,0.6110057 -3.04572,0.6096759 -3.953917,0.6582107 -1.101672,0.057842 -2.689356,0.061166 -2.966603,0.2127549 -0.248657,0.1329719 -0.386947,0.548509 0.545185,0.7153886 0.749297,0.1349665 2.534443,0.4082237 4.416661,0.4068939 1.964659,0 4.029047,-0.3224568 4.476497,-1.8436548 0.359689,-1.2220114 -0.887587,-2.5317843 -1.984605,-3.8595083 -1.200071,-1.4547122 -2.416764,-2.49122785 -2.313711,-3.5210949 0.07779,-0.8018203 1.648852,-0.8470308 4.25643,-0.892906 0.54186,-0.00997 1.621592,-0.035902 1.41349,-0.4640719 -0.185494,-0.3783049 -0.993299,-0.5032984 -1.98261,-0.6648593 M 62.446395,1.137572 C 61.330761,0.37231901 59.341503,0.11634818 57.704619,0.20145022 c -1.458036,0.0764585 -3.965221,0.54053054 -3.870811,1.00194288 0.08909,0.4986445 1.675445,0.3437322 2.402801,0.3437322 1.598988,0 4.136756,0.097735 4.536335,1.1276015 0.861658,2.2206301 -4.98312,6.2057968 -6.229731,5.8228378 -0.5638,-0.1721985 1.145553,-3.0696554 1.765201,-4.1108252 0.368332,-0.6223083 0.930138,-1.5989865 0.45144,-1.6661374 -0.535877,-0.073799 -1.125607,0.8457011 -1.509231,1.3762588 -1.03984,1.4407502 -2.10428,3.0144721 -2.958624,4.6307452 -0.265279,0.4993093 -1.140899,2.001892 -0.840382,2.19603 0.281236,0.180842 1.617603,-0.07646 3.317648,-0.750626 5.345469,-2.1155823 7.75226,-4.8734187 8.397173,-7.1518915 C 63.39249,2.2186332 63.001553,1.5185365 62.446395,1.137572 m -3.96921,-9.7315457 c -0.10904,-0.3596893 1.673451,-0.8270855 3.628802,-0.9135175 1.969978,-0.08643 4.30031,0.3051716 4.735129,1.6049714 0.711399,2.1295441 -2.896127,5.235102 -6.038918,6.7616191 -0.771237,0.3723212 -1.237303,0.4753744 -1.432772,0.4494448 -0.184831,-0.024599 -0.214084,-0.1974633 -0.153582,-0.316473 0.111028,-0.2240576 0.619649,-0.6801511 1.297141,-1.1761361 3.538381,-2.5849731 4.688587,-4.4811516 4.020403,-5.2483989 -0.428834,-0.4919961 -2.221959,-0.8350634 -4.084895,-0.8350634 -0.505293,0 -1.833681,0.110362 -1.971308,-0.3257813"
       fill="#ee2722"
       id="path1"
       sodipodi:nodetypes="cccccccccccccccccsccccccccccccccccccsc"
       style="stroke-width:0.664859" />
    <path
       d="m 55.650307,21.655371 c 0.0017,-0.06988 -0.02754,-0.136941 -0.08,-0.183138 -0.04916,-0.03769 -0.110205,-0.0565 -0.172053,-0.05301 h -0.298803 l -2.303679,5.220869 -0.600499,-2.796705 c -0.0347,-0.24579 -0.232295,-0.413506 -0.465073,-0.400011 h -0.387481 l -1.818846,3.166353 0.01783,-4.939897 c 0.003,-0.0734 -0.02725,-0.144249 -0.08241,-0.192776 -0.05222,-0.0408 -0.11744,-0.06134 -0.183619,-0.05783 h -0.388445 v 5.934623 h 0.494954 v -9.63e-4 l 0.0106,9.63e-4 c 0.145547,0.0014 0.277116,-0.03518 0.384589,-0.113256 0.09783,-0.06988 0.182174,-0.167233 0.256393,-0.284827 l 1.592334,-2.841043 0.663151,3.238645 h 0.425072 c 0.270851,0 0.497363,-0.157595 0.615921,-0.426518 l 2.28922,-5.148096 c 0.01639,-0.04241 0.02988,-0.06988 0.03084,-0.123859 m 20.870464,-0.236151 h -2.449225 c -1.143648,0.0029 -1.265097,0.942677 -1.270398,1.385581 0,0.466037 0.338805,0.837132 0.507484,0.987979 l 1.667518,1.633299 c 0.198077,0.194222 0.293984,0.424108 0.293984,0.637126 0,0.361456 -0.276153,0.657368 -0.722912,0.65544 -4.82e-4,0.0029 -2.158134,0.0034 -2.178375,0.0092 -0.07036,0.01301 -0.144583,0.106027 -0.143137,0.179764 h -0.0063 l 0.0063,0.0029 v 0.445313 h 2.424165 c 1.144611,-0.0043 1.264614,-0.941713 1.270879,-1.384617 l -4.82e-4,-0.0039 C 75.92075,25.3538 75.356397,24.87957 75.352542,24.877642 l -1.58125,-1.556188 C 73.5737,23.126737 73.45225,22.927214 73.451287,22.711786 73.45225,22.348884 73.728403,22.0549 74.172754,22.0549 c 0.003,-9.64e-4 2.185603,-0.0029 2.203435,-0.0082 l 0.006,0.0159 -0.0048,-0.0159 c 0.07085,-0.01349 0.146028,-0.106509 0.144582,-0.180246 0,0 -0.0012,-9.64e-4 0,-0.0019 l -0.0012,-0.445314 m -17.479044,0.595197 c -1.088705,-0.06024 -2.332595,0.580739 -2.760559,2.310908 -0.421216,1.696433 0.366276,2.520552 1.432812,2.657424 l 0.110846,0.0048 c 1.101236,0.0588 2.272835,-0.583149 2.684894,-2.313317 0.402903,-1.696915 -0.386035,-2.549469 -1.467993,-2.659834 m 2.104638,2.710919 c -0.400494,1.686794 -1.616431,3.018398 -3.556726,2.868514 v -9.64e-4 c -1.805834,-0.20868 -2.322957,-1.79764 -1.942223,-3.31961 0.420734,-1.685349 1.631853,-3.01647 3.544677,-2.868514 v 0.0019 c 1.781255,0.207717 2.314764,1.798123 1.954272,3.318647 m 10.807048,-3.249729 c -0.04797,-0.03275 -0.105372,-0.04884 -0.163378,-0.04578 h -0.289164 l -3.054543,2.612121 0.406276,-2.308498 c 0.02275,-0.09412 -0.01222,-0.192789 -0.08916,-0.251574 -0.05357,-0.04052 -0.118863,-0.06251 -0.186029,-0.06265 H 68.28343 l -1.103163,5.934623 h 0.65303 l 0.482905,-2.626579 2.418863,2.628025 h 0.289165 c 0.05783,0.0023 0.114841,-0.01427 0.162414,-0.04723 0.04933,-0.03883 0.07738,-0.0987 0.07567,-0.16145 0,-0.106509 -0.08675,-0.213982 -0.08675,-0.213982 l -2.28922,-2.486817 3.055507,-2.594771 c 0,0 0.08579,-0.07325 0.08579,-0.213982 0.0014,-0.06238 -0.02592,-0.12195 -0.07422,-0.16145 m -6.132701,0.844361 c -0.119521,-0.115666 -0.301213,-0.171089 -0.583149,-0.224103 -0.10985,-0.01665 -0.22055,-0.0271 -0.331575,-0.03133 -0.339769,-0.0188 -1.348954,-0.0034 -1.657878,-9.64e-4 l -0.391336,2.159097 c 0.232295,0.0034 0.498327,0.0067 0.685802,0.0077 0.528208,0 1.039065,-0.01687 1.400521,-0.115666 0.929665,-0.251573 1.3904,-1.306061 0.877133,-1.794749 m 0.600017,-0.358564 c 0.264586,0.300249 0.284345,0.857855 0.209162,1.201479 -0.09157,0.419289 -0.490616,1.478114 -1.985597,1.611611 l 1.259312,2.158133 c 0,0 0.08579,0.128678 0.08579,0.213982 9.64e-4,0.05639 -0.0241,0.126268 -0.07518,0.16145 -0.04695,0.03348 -0.103849,0.05013 -0.161451,0.04723 h -0.332539 l -1.47715,-2.545613 -1.189912,-0.0053 -0.4617,2.550914 h -0.653512 l 1.104609,-5.936069 h 1.524862 c 0.90123,0 1.691613,0.01349 2.153313,0.542184"
       style="fill:#ee2722;stroke-width:0.481941"
       id="path1-4" />
    <path
       d="m 49.085592,14.583156 c -0.08128,0.523581 0.0797,1.137943 0.662921,1.545407 l 2.077432,1.449874 c 0.217982,0.150424 0.325654,0.254401 0.299264,0.43016 -0.03906,0.242789 -0.16573,0.340432 -0.596417,0.340432 H 49.11251 c -0.258623,0 -0.399019,0.126673 -0.445993,0.418548 v 0.900432 h 2.830607 c 1.240336,0 1.854171,-0.731535 1.978205,-1.509516 0.116116,-0.731007 -0.12984,-1.253532 -0.601696,-1.59027 l -2.208327,-1.567047 c -0.177341,-0.1272 -0.221677,-0.193176 -0.20901,-0.289236 0.01953,-0.159396 0.165203,-0.224844 0.416437,-0.224844 h 2.522897 c 0.308237,0 0.483996,-0.315098 0.533081,-0.627558 v -0.691949 h -3.335714 c -0.740507,0 -1.387593,0.661865 -1.507405,1.415567 M 74.23487,13.166533 h -3.499333 l -0.01742,0.105033 c -0.08181,0.440715 -0.04539,0.952156 0.652892,0.952156 h 2.591512 c 1.026048,0 1.418734,0.742619 1.164333,2.135491 -0.233289,1.276227 -0.920488,2.251079 -1.96501,2.251079 h -1.405011 l 0.666615,-3.65609 h -1.194946 c -0.16098,0 -0.271818,0.117172 -0.290292,0.221149 l -0.820205,4.491602 h 2.740352 c 2.023068,0 3.433885,-0.952684 3.870906,-3.354715 0.337794,-1.845726 -0.430687,-3.145705 -2.494396,-3.145705 m -8.307089,5.444814 h -2.761464 l 0.954267,-5.223136 c 0.01905,-0.116626 -0.07185,-0.222168 -0.190009,-0.220622 H 62.71557 l -1.187029,6.499364 h 4.574995 l 0.118756,-0.649197 c 0.05278,-0.291348 -0.04486,-0.406409 -0.294514,-0.406409 m 3.44233,-5.444814 h -1.21553 l -1.187028,6.50042 h 1.445124 l 1.146915,-6.279798 c 0.01989,-0.116862 -0.07149,-0.222964 -0.190009,-0.220622 m -11.239558,1.114192 c -1.318979,0 -2.009873,0.766898 -2.257413,2.27483 -0.247539,1.5111 0.191593,2.275886 1.510044,2.275886 1.318452,0 2.008818,-0.765314 2.256357,-2.275886 0.248068,-1.507932 -0.190537,-2.27483 -1.509516,-2.27483 m 2.944612,2.27483 c -0.303486,1.845727 -1.55174,3.391134 -3.874073,3.391134 -2.323916,0 -3.064951,-1.545407 -2.761464,-3.391134 0.302431,-1.844671 1.55174,-3.388494 3.874601,-3.388494 2.322332,0 3.064423,1.543823 2.760936,3.388494"
       style="fill:#ee2722;stroke-width:0.527803"
       id="path1-7" />
  </g>
</svg>
